<?xml version="1.0" encoding="UTF-8" standalone="no"?>
<svg
   xmlns:dc="http://purl.org/dc/elements/1.1/"
   xmlns:cc="http://creativecommons.org/ns#"
   xmlns:rdf="http://www.w3.org/1999/02/22-rdf-syntax-ns#"
   xmlns:svg="http://www.w3.org/2000/svg"
   xmlns="http://www.w3.org/2000/svg"
   xmlns:sodipodi="http://sodipodi.sourceforge.net/DTD/sodipodi-0.dtd"
   xmlns:inkscape="http://www.inkscape.org/namespaces/inkscape"
   width="73"
   height="72"
   viewBox="0 0 73 72"
   version="1.1"
   id="svg937"
   sodipodi:docname="BMW-small-logo.svg"
   inkscape:version="1.0.1 (3bc2e813f5, 2020-09-07)">
  <metadata
     id="metadata943">
    <rdf:RDF>
      <cc:Work
         rdf:about="">
        <dc:format>image/svg+xml</dc:format>
        <dc:type
           rdf:resource="http://purl.org/dc/dcmitype/StillImage" />
        <dc:title></dc:title>
      </cc:Work>
    </rdf:RDF>
  </metadata>
  <defs
     id="defs941" />
  <sodipodi:namedview
     pagecolor="#ffffff"
     bordercolor="#666666"
     borderopacity="1"
     objecttolerance="10"
     gridtolerance="10"
     guidetolerance="10"
     inkscape:pageopacity="0"
     inkscape:pageshadow="2"
     inkscape:window-width="1920"
     inkscape:window-height="1010"
     id="namedview939"
     showgrid="false"
     inkscape:zoom="11.736111"
     inkscape:cx="26.847646"
     inkscape:cy="39.408284"
     inkscape:window-x="-7"
     inkscape:window-y="-7"
     inkscape:window-maximized="1"
     inkscape:current-layer="svg937" />
  <ellipse
     style="fill:#121212;fill-opacity:1;stroke:#000000;stroke-width:0.160932;stroke-linecap:round;stroke-linejoin:round;paint-order:markers fill stroke"
     id="path1515"
     cx="36.619503"
     cy="35.911503"
     rx="36.114037"
     ry="35.831036" />
  <path
     fill="#ffffff"
     d="M 36.6195,0 C 16.630224,0 0.425,16.079 0.425,35.911 c 0,19.833 16.205224,35.912 36.1945,35.912 19.989276,0 36.1945,-16.079 36.1945,-35.912 C 72.814,16.08 56.608776,0 36.6195,0 Z m 33.840467,35.911 c 0,18.543 -15.150209,33.576 -33.840467,33.576 -18.690258,0 -33.8404675,-15.033 -33.8404675,-33.576 0,-18.542 15.1512095,-33.576 33.8404675,-33.576 18.689258,0 33.840467,15.034 33.840467,33.576 z"
     id="path925"
     style="stroke-width:1.00001" />
  <g
     fill="#ffffff"
     id="g929">
    <path
       d="m 43.734,16.452 c 0.491,0.524 1.2,1.369 1.598,1.882 l 7.329,-4.616 c -0.366,-0.475 -0.95,-1.197 -1.385,-1.706 l -4.642,3.045 -0.317,0.27 0.236,-0.342 2.05,-4.058 -1.45,-1.438 -4.092,2.033 -0.344,0.234 0.274,-0.314 3.07,-4.603 c -0.54,-0.456 -1.059,-0.874 -1.72,-1.38 l -4.653,7.265 c 0.59,0.45 1.367,1.11 1.862,1.56 l 4.38,-2.255 0.28,-0.205 -0.206,0.279 -2.27,4.35 z m -16.631,-9.208 2.003,-4.45 0.127,-0.395 -0.036,0.411 0.21,5.948 c 0.703,0.066 1.429,0.163 2.144,0.281 L 31.225,0.23 C 30.225,0.12 29.229,0.042 28.233,0 L 26.26,4.858 26.19,5.219 26.12,4.859 24.15,0 c -0.997,0.042 -1.993,0.12 -2.993,0.23 l -0.325,8.81 c 0.715,-0.12 1.44,-0.214 2.143,-0.282 l 0.21,-5.948 -0.036,-0.411 0.128,0.394 2.002,4.451 z m -16.197,7.021 c 1.158,-1.21 1.813,-2.608 0.656,-3.942 C 10.932,9.599 9.874,9.44 8.997,9.797 L 8.91,9.831 8.938,9.755 C 9.068,9.411 9.151,8.313 8.208,7.555 7.748,7.185 7.172,7.048 6.588,7.107 5.501,7.217 4.665,7.954 2.388,10.473 1.7,11.233 0.7,12.433 0.1,13.209 l 6.254,5.887 c 2.073,-2.276 2.918,-3.123 4.552,-4.831 z m -8.16,-1.44 C 4.004,11.296 5.343,9.909 5.95,9.36 6.142,9.187 6.35,9.014 6.603,8.946 7.014,8.834 7.438,9.124 7.533,9.542 7.629,9.962 7.363,10.361 7.067,10.69 6.401,11.436 3.958,13.971 3.958,13.971 L 2.745,12.825 Z m 2.449,2.306 c 0,0 2.379,-2.496 3.156,-3.294 0.308,-0.317 0.506,-0.51 0.719,-0.613 0.274,-0.133 0.574,-0.16 0.843,0.017 0.263,0.176 0.385,0.477 0.319,0.777 -0.079,0.357 -0.373,0.697 -0.615,0.957 l -3.154,3.349 z"
       transform="translate(10.427,4.223)"
       id="path927" />
  </g>
  <path
     fill="#ffffff"
     d="M 58.083,35.911 H 36.619 V 14.615 c 11.862,0 21.464,9.527 21.464,21.296 z m -21.464,0 v 21.296 c -11.862,0 -21.464,-9.527 -21.464,-21.296 z"
     id="path931" />
  <path
     fill="#0066b1"
     d="M 36.619,14.615 V 35.911 H 15.155 c 0,-11.769 9.602,-21.296 21.464,-21.296 z m 21.464,21.296 c 0,11.77 -9.602,21.296 -21.464,21.296 V 35.911 Z"
     id="path933" />
</svg>
